<?xml version="1.0" encoding="UTF-8"?>
<svg id="Layer_1" xmlns="http://www.w3.org/2000/svg" version="1.1" viewBox="0 0 1200 889.34">
  <!-- Generator: Adobe Illustrator 29.5.0, SVG Export Plug-In . SVG Version: 2.1.0 Build 137)  -->
  <defs>
    <style>
      .st0 {
        fill: #fbb514;
      }

      .st1 {
        fill: #003049;
      }
    </style>
  </defs>
  <g>
    <g>
      <polygon class="st1" points="147.24 481.6 100.56 481.6 37.77 558.22 37.77 481.6 0 481.6 0 651.45 37.77 651.45 37.77 567.87 102.73 651.45 149.64 651.45 78.52 562.43 147.24 481.6"/>
      <path class="st1" d="M258.62,537.78c-6.9-3.77-14.92-5.65-24.06-5.65s-16.92,1.89-23.82,5.65c-2.85,1.56-5.37,3.45-7.7,5.54v-61.71h-36.81v169.85h36.81v-66.64c0-4.01.88-7.58,2.65-10.71,1.76-3.13,4.17-5.53,7.22-7.22,3.04-1.69,6.57-2.53,10.59-2.53,5.77,0,10.54,1.89,14.31,5.65,3.77,3.77,5.65,8.7,5.65,14.8v66.64h36.81v-74.82c0-8.82-1.89-16.56-5.65-23.22-3.77-6.65-9.11-11.87-16-15.64Z"/>
      <path class="st1" d="M389.49,539.34c-8.82-4.97-19-7.46-30.55-7.46s-22.54,2.65-32,7.94c-9.47,5.29-16.96,12.55-22.49,21.77-5.53,9.22-8.3,19.69-8.3,31.39s2.81,22.22,8.42,31.52c5.61,9.3,13.35,16.56,23.22,21.77,9.86,5.21,21.13,7.82,33.8,7.82,9.78,0,18.77-1.69,26.94-5.05s15.15-8.42,20.93-15.15l-20.21-20.21c-3.53,4.01-7.62,7.02-12.27,9.02-4.66,2.01-9.86,3.01-15.64,3.01-6.25,0-11.67-1.32-16.24-3.97-4.57-2.65-8.1-6.41-10.58-11.3-.82-1.62-1.46-3.38-2.01-5.22l83.68-.2c.64-3.05,1.08-5.73,1.32-8.06.24-2.32.36-4.53.36-6.61,0-11.39-2.53-21.49-7.58-30.31-5.05-8.82-11.99-15.72-20.81-20.69ZM344.15,564c4.25-2.65,9.26-3.97,15.04-3.97,5.45,0,10.06,1.17,13.83,3.49,3.77,2.33,6.61,5.7,8.54,10.11.8,1.84,1.42,3.93,1.91,6.18l-50.96.14c.49-1.67,1.06-3.29,1.77-4.76,2.32-4.81,5.61-8.54,9.86-11.19Z"/>
      <polygon class="st1" points="484.73 605.53 461.43 534.53 421.73 534.53 466.36 643.42 439.77 700.77 477.55 700.77 498.24 651.93 548.27 534.53 508.58 534.53 484.73 605.53"/>
      <path class="st1" d="M638.97,544.27c-3.16-3.01-6.78-5.57-10.94-7.58-6.34-3.05-13.44-4.57-21.29-4.57-10.75,0-20.33,2.65-28.75,7.94-8.42,5.29-15.08,12.51-19.97,21.65-4.89,9.14-7.34,19.57-7.34,31.28s2.44,22.13,7.34,31.27c4.89,9.14,11.55,16.36,19.97,21.65,8.42,5.29,18,7.94,28.75,7.94,7.86,0,15-1.53,21.41-4.57,4.15-1.97,7.72-4.48,10.83-7.42v9.58h36.09v-116.92h-36.09v9.74ZM614.2,620.65c-4.97,0-9.46-1.2-13.47-3.61-4.01-2.41-7.14-5.69-9.38-9.86-2.25-4.17-3.37-8.9-3.37-14.19s1.16-10.26,3.49-14.44c2.32-4.17,5.45-7.42,9.38-9.74,3.93-2.32,8.46-3.49,13.59-3.49s9.66,1.16,13.59,3.49c3.93,2.33,6.98,5.58,9.14,9.74,2.16,4.17,3.25,8.98,3.25,14.44,0,8.02-2.41,14.64-7.22,19.85-4.81,5.22-11.15,7.82-19.01,7.82Z"/>
      <polygon class="st1" points="788.97 591.79 723.65 484.49 707.78 484.49 707.78 651.45 730.39 651.45 730.39 533.92 781.15 617.29 797.03 617.29 847.55 534.32 847.55 651.45 870.17 651.45 870.17 484.49 854.29 484.49 788.97 591.79"/>
      <path class="st1" d="M916.84,486.65c-4.01,0-7.3,1.32-9.86,3.97-2.57,2.65-3.85,5.9-3.85,9.74s1.28,7.34,3.85,9.99c2.57,2.65,5.85,3.97,9.86,3.97s7.3-1.32,9.86-3.97c2.56-2.65,3.85-5.97,3.85-9.99s-1.29-7.09-3.85-9.74c-2.57-2.64-5.86-3.97-9.86-3.97Z"/>
      <rect class="st1" x="906.01" y="537.17" width="21.65" height="114.28"/>
      <path class="st1" d="M1040.62,541.27c-6.66-4.33-14.31-6.5-22.98-6.5s-16.44,1.97-23.34,5.89c-5.2,2.96-9.52,6.72-12.99,11.28v-14.77h-21.65v114.28h21.65v-66.64c0-5.78,1.28-10.91,3.85-15.4,2.56-4.48,6.09-8.02,10.59-10.58,4.49-2.57,9.62-3.85,15.4-3.85,8.66,0,15.71,2.81,21.17,8.42,5.45,5.62,8.18,12.75,8.18,21.41v66.64h21.65v-70.97c0-7.86-1.93-15.28-5.78-22.25-3.85-6.98-9.11-12.63-15.76-16.96Z"/>
      <path class="st1" d="M1178.11,481.6v71.45c-4.03-5.34-9.05-9.67-15.16-12.87-6.9-3.61-14.59-5.41-23.09-5.41-10.59,0-20.05,2.65-28.39,7.94-8.34,5.29-14.96,12.43-19.85,21.41-4.89,8.99-7.34,19.09-7.34,30.32s2.44,21.33,7.34,30.31c4.89,8.98,11.51,16.08,19.85,21.29,8.33,5.22,17.8,7.82,28.39,7.82,8.66,0,16.44-1.81,23.34-5.41,6.04-3.16,10.97-7.46,14.92-12.77v15.78h21.89v-169.85h-21.89ZM1162.35,628.35c-5.38,3.37-11.67,5.05-18.89,5.05s-13.59-1.68-19.13-5.05c-5.53-3.37-9.86-7.98-12.99-13.84-3.13-5.85-4.69-12.63-4.69-20.33s1.56-14.23,4.69-20.09c3.13-5.85,7.42-10.46,12.87-13.83,5.45-3.37,11.79-5.05,19-5.05s13.51,1.69,18.89,5.05c5.37,3.37,9.62,7.94,12.75,13.71,3.13,5.78,4.69,12.59,4.69,20.45s-1.53,14.23-4.57,20.09c-3.05,5.86-7.26,10.46-12.63,13.84Z"/>
    </g>
    <g>
      <path class="st1" d="M0,877.51v-39.84h23.11v3.27H3.64v15h18.25v3.27H3.64v15.04h19.86v3.27H0Z"/>
      <path class="st1" d="M31.79,877.51v-29.88h3.37v4.59h.31c.6-1.54,1.59-2.76,2.99-3.65,1.4-.89,3.07-1.33,5.03-1.33,2.06,0,3.76.48,5.09,1.45,1.33.97,2.33,2.29,2.99,3.98h.25c.67-1.66,1.77-2.98,3.3-3.96,1.52-.98,3.38-1.47,5.55-1.47,2.78,0,4.97.87,6.58,2.61,1.61,1.75,2.41,4.29,2.41,7.64v20.02h-3.46v-20.02c0-2.36-.6-4.13-1.81-5.31-1.2-1.18-2.79-1.77-4.77-1.77-2.28,0-4.04.7-5.27,2.1-1.23,1.4-1.85,3.18-1.85,5.33v19.67h-3.54v-20.33c0-2.02-.56-3.66-1.69-4.9-1.13-1.24-2.72-1.87-4.77-1.87-1.37,0-2.61.34-3.7,1.01-1.1.67-1.96,1.61-2.59,2.81-.63,1.2-.94,2.58-.94,4.13v19.14h-3.46Z"/>
      <path class="st1" d="M78.79,888.72v-41.09h3.37v5.7h.41c.41-.9.98-1.81,1.71-2.75.73-.94,1.69-1.74,2.89-2.38,1.2-.65,2.71-.97,4.54-.97,2.47,0,4.62.65,6.47,1.94,1.85,1.29,3.29,3.09,4.32,5.41,1.03,2.31,1.55,5.01,1.55,8.08s-.52,5.79-1.55,8.11c-1.03,2.32-2.47,4.13-4.32,5.43-1.85,1.3-3.99,1.94-6.43,1.94-1.8,0-3.31-.33-4.52-.97s-2.19-1.45-2.94-2.4-1.32-1.88-1.72-2.79h-.31v16.75h-3.46ZM82.21,862.59c0,2.41.36,4.55,1.08,6.41.72,1.86,1.76,3.32,3.11,4.38,1.36,1.06,3,1.58,4.93,1.58s3.66-.55,5.03-1.64c1.37-1.1,2.41-2.58,3.13-4.44.72-1.87,1.08-3.96,1.08-6.29s-.35-4.36-1.06-6.21c-.71-1.84-1.75-3.3-3.12-4.39-1.38-1.08-3.06-1.62-5.06-1.62s-3.6.52-4.96,1.57c-1.36,1.04-2.4,2.48-3.1,4.32-.71,1.84-1.06,3.94-1.06,6.33Z"/>
      <path class="st1" d="M123.26,878.13c-2.58,0-4.86-.65-6.84-1.96s-3.53-3.12-4.64-5.44c-1.11-2.31-1.67-4.99-1.67-8.03s.56-5.75,1.67-8.08c1.12-2.33,2.66-4.14,4.64-5.45,1.98-1.3,4.26-1.96,6.84-1.96s4.86.65,6.83,1.96c1.97,1.31,3.52,3.13,4.64,5.45,1.12,2.32,1.68,5.01,1.68,8.07s-.56,5.71-1.67,8.03c-1.12,2.31-2.66,4.13-4.64,5.44-1.98,1.31-4.26,1.96-6.84,1.96ZM123.26,874.96c2.08,0,3.83-.56,5.27-1.67,1.44-1.12,2.53-2.6,3.28-4.46.75-1.86,1.12-3.9,1.12-6.13s-.37-4.28-1.12-6.15c-.74-1.87-1.84-3.37-3.28-4.49-1.44-1.13-3.2-1.69-5.27-1.69s-3.82.57-5.26,1.69c-1.45,1.13-2.54,2.63-3.29,4.49-.74,1.87-1.12,3.92-1.12,6.15s.37,4.27,1.12,6.13,1.84,3.34,3.28,4.46c1.44,1.12,3.2,1.67,5.27,1.67Z"/>
      <path class="st1" d="M150.66,877.51l-9.03-29.88h3.66l7.08,24.65h.25l7.06-24.65h3.68l7,24.59h.27l7.08-24.59h3.66l-9.03,29.88h-3.58l-7.08-24.49h-.37l-7.08,24.49h-3.58Z"/>
      <path class="st1" d="M200.2,878.13c-2.79,0-5.2-.65-7.24-1.96-2.04-1.3-3.61-3.11-4.72-5.43-1.11-2.32-1.66-4.98-1.66-8.01s.56-5.68,1.66-8.03c1.11-2.34,2.65-4.18,4.61-5.51,1.97-1.33,4.24-1.99,6.82-1.99,1.62,0,3.19.29,4.69.88,1.5.59,2.86,1.49,4.06,2.7,1.2,1.21,2.15,2.74,2.85,4.57.7,1.84,1.05,4,1.05,6.51v1.71h-23.35v-3.05h19.8c0-1.92-.39-3.65-1.16-5.19-.77-1.54-1.84-2.75-3.21-3.65-1.37-.89-2.95-1.34-4.74-1.34-1.89,0-3.56.51-5,1.52-1.44,1.01-2.57,2.35-3.38,4.01-.81,1.66-1.22,3.47-1.24,5.45v1.83c0,2.37.41,4.44,1.24,6.21.82,1.77,2,3.14,3.51,4.12,1.52.97,3.31,1.46,5.39,1.46,1.42,0,2.66-.22,3.73-.66,1.07-.44,1.97-1.03,2.7-1.78s1.29-1.57,1.66-2.46l3.29,1.07c-.46,1.26-1.2,2.42-2.23,3.48-1.03,1.06-2.31,1.92-3.85,2.56-1.54.64-3.31.96-5.3.96Z"/>
      <path class="st1" d="M219.93,877.51v-29.88h3.37v4.59h.25c.6-1.5,1.64-2.72,3.12-3.65,1.49-.92,3.17-1.39,5.05-1.39.29,0,.6,0,.95.02s.64.03.88.04v3.52c-.16-.03-.43-.06-.82-.12-.39-.05-.81-.08-1.27-.08-1.56,0-2.94.33-4.15.98-1.21.66-2.17,1.56-2.87,2.71-.7,1.16-1.05,2.47-1.05,3.95v19.3h-3.46Z"/>
      <path class="st1" d="M241.27,842.49c-.71,0-1.32-.25-1.83-.73s-.76-1.07-.76-1.76.26-1.27.77-1.76c.51-.49,1.12-.73,1.82-.73s1.32.24,1.83.73c.51.49.76,1.07.76,1.76s-.26,1.28-.77,1.76c-.51.49-1.12.73-1.82.73ZM239.5,877.51v-29.88h3.48v29.88h-3.48Z"/>
      <path class="st1" d="M255.63,858.84v18.68h-3.46v-29.88h3.37v4.69h.31c.7-1.53,1.79-2.76,3.28-3.69,1.49-.93,3.33-1.39,5.52-1.39,2.01,0,3.78.42,5.3,1.25s2.71,2.07,3.56,3.69c.85,1.62,1.28,3.61,1.28,5.97v19.36h-3.47v-19.14c0-2.45-.68-4.39-2.05-5.82-1.37-1.42-3.2-2.14-5.49-2.14-1.57,0-2.96.34-4.18,1.01-1.22.67-2.18,1.64-2.89,2.91-.71,1.26-1.06,2.77-1.06,4.5Z"/>
      <path class="st1" d="M295.32,889.34c-2.04,0-3.82-.26-5.35-.79-1.53-.53-2.82-1.24-3.87-2.15-1.05-.91-1.87-1.93-2.45-3.05l2.84-1.87c.43.75,1,1.49,1.72,2.22.72.73,1.66,1.33,2.82,1.81s2.59.72,4.29.72c2.65,0,4.78-.66,6.41-1.98,1.63-1.32,2.44-3.38,2.44-6.17v-6.73h-.31c-.4.91-.98,1.81-1.73,2.71-.75.9-1.73,1.65-2.95,2.25s-2.71.9-4.5.9c-2.39,0-4.5-.59-6.35-1.77-1.85-1.18-3.3-2.87-4.36-5.07-1.06-2.2-1.59-4.82-1.59-7.87s.52-5.68,1.55-7.98c1.03-2.3,2.47-4.09,4.33-5.37,1.85-1.28,4.01-1.93,6.48-1.93,1.83,0,3.35.32,4.55.96,1.21.64,2.18,1.44,2.91,2.38.73.95,1.31,1.87,1.72,2.76h.35v-5.7h3.39v30.66c0,2.53-.54,4.61-1.62,6.25-1.08,1.63-2.54,2.84-4.4,3.63-1.86.78-3.96,1.18-6.32,1.18ZM295.08,874.03c1.92,0,3.56-.46,4.92-1.39,1.36-.93,2.41-2.26,3.13-4,.73-1.74,1.09-3.81,1.09-6.21s-.36-4.41-1.07-6.22c-.71-1.81-1.75-3.24-3.11-4.28-1.35-1.04-3.01-1.57-4.97-1.57s-3.68.54-5.06,1.62c-1.38,1.08-2.41,2.53-3.11,4.35-.7,1.82-1.05,3.86-1.05,6.1s.36,4.3,1.07,6.04,1.76,3.11,3.13,4.08c1.37.98,3.05,1.47,5.02,1.47Z"/>
      <path class="st1" d="M336.6,837.67v39.84h-3.64v-39.84h3.64Z"/>
      <path class="st1" d="M349.93,858.84v18.68h-3.46v-29.88h3.37v4.69h.31c.7-1.53,1.79-2.76,3.28-3.69,1.49-.93,3.33-1.39,5.52-1.39,2.01,0,3.78.42,5.3,1.25,1.52.84,2.71,2.07,3.56,3.69.85,1.62,1.28,3.61,1.28,5.97v19.36h-3.47v-19.14c0-2.45-.68-4.39-2.05-5.82-1.37-1.42-3.2-2.14-5.49-2.14-1.57,0-2.96.34-4.18,1.01-1.22.67-2.18,1.64-2.89,2.91-.71,1.26-1.06,2.77-1.06,4.5Z"/>
      <path class="st1" d="M389.98,847.63v3.01h-14.26v-3.01h14.26ZM380.18,840.47h3.48v29.24c0,1.24.21,2.22.64,2.93.43.71.98,1.2,1.67,1.5.69.29,1.42.44,2.2.44.45,0,.84-.03,1.17-.09.33-.06.61-.12.86-.19l.74,3.13c-.34.13-.75.25-1.24.36-.49.11-1.1.17-1.83.17-1.27,0-2.49-.28-3.66-.84-1.18-.56-2.14-1.39-2.89-2.49-.75-1.1-1.13-2.47-1.13-4.1v-30.06Z"/>
      <path class="st1" d="M409.92,878.13c-2.79,0-5.2-.65-7.24-1.96-2.04-1.3-3.61-3.11-4.72-5.43-1.11-2.32-1.66-4.98-1.66-8.01s.56-5.68,1.66-8.03c1.11-2.34,2.65-4.18,4.61-5.51,1.97-1.33,4.24-1.99,6.82-1.99,1.62,0,3.19.29,4.69.88,1.5.59,2.86,1.49,4.06,2.7,1.2,1.21,2.15,2.74,2.85,4.57.7,1.84,1.05,4,1.05,6.51v1.71h-23.35v-3.05h19.8c0-1.92-.39-3.65-1.16-5.19-.77-1.54-1.84-2.75-3.21-3.65-1.37-.89-2.95-1.34-4.74-1.34-1.89,0-3.56.51-5,1.52-1.44,1.01-2.57,2.35-3.38,4.01-.81,1.66-1.22,3.47-1.24,5.45v1.83c0,2.37.41,4.44,1.24,6.21.82,1.77,2,3.14,3.51,4.12,1.52.97,3.31,1.46,5.39,1.46,1.42,0,2.66-.22,3.73-.66,1.07-.44,1.97-1.03,2.7-1.78.73-.74,1.29-1.57,1.66-2.46l3.29,1.07c-.46,1.26-1.2,2.42-2.23,3.48-1.03,1.06-2.31,1.92-3.85,2.56-1.54.64-3.31.96-5.3.96Z"/>
      <path class="st1" d="M433.11,837.67v39.84h-3.46v-39.84h3.46Z"/>
      <path class="st1" d="M445.72,837.67v39.84h-3.46v-39.84h3.46Z"/>
      <path class="st1" d="M456.67,842.49c-.71,0-1.32-.25-1.83-.73s-.76-1.07-.76-1.76.26-1.27.77-1.76c.51-.49,1.12-.73,1.82-.73s1.32.24,1.83.73c.51.49.76,1.07.76,1.76s-.26,1.28-.77,1.76c-.51.49-1.12.73-1.82.73ZM454.9,877.51v-29.88h3.48v29.88h-3.48Z"/>
      <path class="st1" d="M478.97,889.34c-2.04,0-3.82-.26-5.35-.79-1.53-.53-2.82-1.24-3.87-2.15s-1.87-1.93-2.45-3.05l2.84-1.87c.43.75,1,1.49,1.72,2.22.72.73,1.66,1.33,2.82,1.81s2.59.72,4.29.72c2.65,0,4.78-.66,6.41-1.98,1.63-1.32,2.44-3.38,2.44-6.17v-6.73h-.31c-.4.91-.98,1.81-1.73,2.71-.75.9-1.73,1.65-2.95,2.25-1.21.6-2.71.9-4.5.9-2.39,0-4.5-.59-6.35-1.77-1.85-1.18-3.3-2.87-4.36-5.07-1.06-2.2-1.59-4.82-1.59-7.87s.52-5.68,1.55-7.98c1.03-2.3,2.47-4.09,4.33-5.37,1.85-1.28,4.01-1.93,6.48-1.93,1.83,0,3.35.32,4.55.96,1.21.64,2.18,1.44,2.91,2.38.73.95,1.31,1.87,1.72,2.76h.35v-5.7h3.39v30.66c0,2.53-.54,4.61-1.62,6.25-1.08,1.63-2.54,2.84-4.4,3.63s-3.96,1.18-6.32,1.18ZM478.73,874.03c1.92,0,3.56-.46,4.92-1.39,1.36-.93,2.41-2.26,3.13-4,.73-1.74,1.09-3.81,1.09-6.21s-.36-4.41-1.07-6.22c-.71-1.81-1.75-3.24-3.11-4.28-1.35-1.04-3.01-1.57-4.97-1.57s-3.68.54-5.06,1.62c-1.38,1.08-2.41,2.53-3.11,4.35-.7,1.82-1.05,3.86-1.05,6.1s.36,4.3,1.07,6.04c.71,1.74,1.76,3.11,3.13,4.08,1.37.98,3.05,1.47,5.02,1.47Z"/>
      <path class="st1" d="M512.56,878.13c-2.79,0-5.2-.65-7.24-1.96-2.04-1.3-3.61-3.11-4.72-5.43-1.11-2.32-1.66-4.98-1.66-8.01s.56-5.68,1.66-8.03c1.11-2.34,2.65-4.18,4.61-5.51,1.97-1.33,4.24-1.99,6.82-1.99,1.62,0,3.19.29,4.69.88,1.5.59,2.86,1.49,4.06,2.7s2.15,2.74,2.85,4.57c.7,1.84,1.05,4,1.05,6.51v1.71h-23.35v-3.05h19.8c0-1.92-.39-3.65-1.16-5.19-.77-1.54-1.84-2.75-3.21-3.65-1.37-.89-2.95-1.34-4.74-1.34-1.89,0-3.56.51-5,1.52-1.44,1.01-2.57,2.35-3.38,4.01-.81,1.66-1.22,3.47-1.24,5.45v1.83c0,2.37.41,4.44,1.24,6.21.82,1.77,2,3.14,3.51,4.12,1.52.97,3.31,1.46,5.39,1.46,1.42,0,2.66-.22,3.73-.66,1.07-.44,1.97-1.03,2.7-1.78.73-.74,1.29-1.57,1.66-2.46l3.29,1.07c-.46,1.26-1.2,2.42-2.23,3.48-1.03,1.06-2.31,1.92-3.85,2.56-1.54.64-3.31.96-5.3.96Z"/>
      <path class="st1" d="M535.75,858.84v18.68h-3.46v-29.88h3.37v4.69h.31c.7-1.53,1.79-2.76,3.28-3.69,1.49-.93,3.33-1.39,5.52-1.39,2.01,0,3.78.42,5.3,1.25,1.52.84,2.71,2.07,3.56,3.69.85,1.62,1.28,3.61,1.28,5.97v19.36h-3.47v-19.14c0-2.45-.68-4.39-2.05-5.82-1.37-1.42-3.2-2.14-5.49-2.14-1.57,0-2.96.34-4.18,1.01-1.22.67-2.18,1.64-2.89,2.91-.71,1.26-1.06,2.77-1.06,4.5Z"/>
      <path class="st1" d="M575.71,878.13c-2.67,0-5-.67-6.97-2-1.98-1.34-3.51-3.17-4.6-5.49-1.09-2.32-1.64-4.97-1.64-7.94s.56-5.66,1.66-8c1.11-2.33,2.65-4.17,4.62-5.5,1.97-1.33,4.26-1.99,6.87-1.99,2,0,3.8.39,5.43,1.16,1.62.77,2.96,1.86,4.02,3.25,1.06,1.39,1.72,3.02,1.99,4.87h-3.5c-.37-1.69-1.24-3.13-2.62-4.33-1.38-1.2-3.14-1.8-5.26-1.8-1.91,0-3.59.52-5.06,1.55-1.46,1.03-2.61,2.46-3.43,4.3-.82,1.84-1.24,3.96-1.24,6.37s.4,4.57,1.21,6.43c.8,1.86,1.94,3.32,3.39,4.37,1.46,1.05,3.17,1.58,5.13,1.58,1.32,0,2.53-.25,3.63-.75s2.02-1.21,2.76-2.13c.74-.92,1.25-2.02,1.51-3.29h3.5c-.26,1.8-.9,3.41-1.92,4.81-1.02,1.41-2.33,2.51-3.95,3.32-1.61.8-3.46,1.2-5.53,1.2Z"/>
      <path class="st1" d="M606.6,878.13c-2.79,0-5.2-.65-7.24-1.96-2.04-1.3-3.61-3.11-4.72-5.43-1.11-2.32-1.66-4.98-1.66-8.01s.56-5.68,1.66-8.03c1.11-2.34,2.65-4.18,4.61-5.51,1.97-1.33,4.24-1.99,6.82-1.99,1.62,0,3.19.29,4.69.88,1.5.59,2.86,1.49,4.06,2.7,1.2,1.21,2.15,2.74,2.85,4.57.7,1.84,1.05,4,1.05,6.51v1.71h-23.35v-3.05h19.8c0-1.92-.39-3.65-1.16-5.19-.77-1.54-1.84-2.75-3.21-3.65-1.37-.89-2.95-1.34-4.74-1.34-1.89,0-3.56.51-5,1.52-1.44,1.01-2.57,2.35-3.38,4.01-.81,1.66-1.22,3.47-1.24,5.45v1.83c0,2.37.41,4.44,1.24,6.21.82,1.77,2,3.14,3.51,4.12,1.52.97,3.31,1.46,5.39,1.46,1.42,0,2.66-.22,3.73-.66,1.07-.44,1.97-1.03,2.7-1.78.73-.74,1.29-1.57,1.66-2.46l3.29,1.07c-.46,1.26-1.2,2.42-2.23,3.48-1.03,1.06-2.31,1.92-3.85,2.56-1.54.64-3.31.96-5.3.96Z"/>
      <path class="st1" d="M629.1,877.8c-.77,0-1.42-.27-1.98-.82-.55-.55-.83-1.21-.83-1.98s.28-1.42.83-1.98,1.21-.83,1.98-.83,1.42.28,1.97.83.83,1.21.83,1.98c0,.51-.13.97-.38,1.4-.25.43-.59.77-1.01,1.02-.42.25-.89.38-1.41.38Z"/>
      <path class="st1" d="M657.15,877.51v-39.84h23.11v3.27h-19.48v15h18.25v3.27h-18.25v15.04h19.86v3.27h-23.5Z"/>
      <path class="st1" d="M692.4,837.67v39.84h-3.46v-39.84h3.46Z"/>
      <path class="st1" d="M713.62,878.13c-2.79,0-5.2-.65-7.24-1.96-2.04-1.3-3.61-3.11-4.72-5.43-1.11-2.32-1.66-4.98-1.66-8.01s.56-5.68,1.66-8.03c1.11-2.34,2.65-4.18,4.61-5.51,1.97-1.33,4.24-1.99,6.82-1.99,1.62,0,3.19.29,4.69.88s2.86,1.49,4.06,2.7,2.15,2.74,2.85,4.57c.7,1.84,1.05,4,1.05,6.51v1.71h-23.35v-3.05h19.8c0-1.92-.39-3.65-1.16-5.19-.77-1.54-1.84-2.75-3.21-3.65-1.37-.89-2.95-1.34-4.74-1.34-1.89,0-3.56.51-5,1.52-1.44,1.01-2.57,2.35-3.38,4.01-.81,1.66-1.22,3.47-1.24,5.45v1.83c0,2.37.41,4.44,1.24,6.21.82,1.77,2,3.14,3.51,4.12,1.52.97,3.31,1.46,5.39,1.46,1.42,0,2.66-.22,3.73-.66,1.07-.44,1.97-1.03,2.7-1.78.73-.74,1.29-1.57,1.66-2.46l3.29,1.07c-.46,1.26-1.2,2.42-2.23,3.48-1.03,1.06-2.31,1.92-3.85,2.56-1.54.64-3.31.96-5.3.96Z"/>
      <path class="st1" d="M756.48,847.63l-10.92,29.88h-3.7l-10.92-29.88h3.76l8.87,25.31h.27l8.87-25.31h3.76Z"/>
      <path class="st1" d="M771.58,878.19c-1.8,0-3.45-.35-4.94-1.06-1.49-.71-2.68-1.73-3.56-3.07-.88-1.34-1.32-2.97-1.32-4.89,0-1.48.28-2.72.84-3.74.56-1.01,1.35-1.84,2.37-2.49,1.02-.65,2.24-1.16,3.64-1.54,1.4-.38,2.94-.67,4.63-.88,1.67-.21,3.09-.39,4.25-.55,1.16-.16,2.05-.4,2.66-.74.61-.34.91-.88.91-1.64v-.7c0-2.04-.61-3.64-1.82-4.82-1.21-1.17-2.95-1.76-5.22-1.76s-3.91.47-5.26,1.42-2.31,2.06-2.85,3.35l-3.29-1.19c.67-1.63,1.61-2.94,2.8-3.92s2.53-1.69,4.01-2.12c1.48-.43,2.98-.65,4.5-.65,1.14,0,2.33.15,3.57.45,1.24.3,2.39.81,3.45,1.54,1.06.73,1.93,1.75,2.59,3.05.66,1.3.99,2.95.99,4.95v20.29h-3.46v-4.73h-.21c-.41.88-1.03,1.74-1.85,2.57-.82.83-1.84,1.51-3.07,2.04-1.23.53-2.68.8-4.34.8ZM772.04,875.02c1.84,0,3.44-.41,4.79-1.23,1.35-.82,2.39-1.9,3.12-3.26.73-1.36,1.1-2.85,1.1-4.49v-4.32c-.26.25-.69.47-1.29.66-.61.19-1.3.37-2.08.52s-1.56.27-2.34.38c-.78.1-1.48.19-2.1.27-1.69.21-3.13.53-4.32.97-1.19.44-2.11,1.05-2.74,1.82-.64.77-.95,1.76-.95,2.97,0,1.82.65,3.22,1.95,4.21,1.3.99,2.92,1.49,4.88,1.49Z"/>
      <path class="st1" d="M805.49,847.63v3.01h-14.26v-3.01h14.26ZM795.68,840.47h3.48v29.24c0,1.24.21,2.22.64,2.93.43.71.98,1.2,1.67,1.5.69.29,1.42.44,2.2.44.45,0,.84-.03,1.17-.09.33-.06.61-.12.86-.19l.74,3.13c-.34.13-.75.25-1.24.36-.49.11-1.1.17-1.83.17-1.27,0-2.49-.28-3.66-.84-1.18-.56-2.14-1.39-2.89-2.49-.75-1.1-1.13-2.47-1.13-4.1v-30.06Z"/>
      <path class="st1" d="M815.16,842.49c-.71,0-1.32-.25-1.83-.73s-.76-1.07-.76-1.76.26-1.27.77-1.76c.51-.49,1.12-.73,1.82-.73s1.32.24,1.83.73c.51.49.76,1.07.76,1.76s-.26,1.28-.77,1.76c-.51.49-1.12.73-1.82.73ZM813.38,877.51v-29.88h3.48v29.88h-3.48Z"/>
      <path class="st1" d="M829.51,858.84v18.68h-3.46v-29.88h3.37v4.69h.31c.7-1.53,1.79-2.76,3.28-3.69,1.49-.93,3.33-1.39,5.52-1.39,2.01,0,3.78.42,5.3,1.25,1.52.84,2.71,2.07,3.56,3.69.85,1.62,1.28,3.61,1.28,5.97v19.36h-3.47v-19.14c0-2.45-.68-4.39-2.05-5.82-1.37-1.42-3.2-2.14-5.49-2.14-1.57,0-2.96.34-4.18,1.01-1.22.67-2.18,1.64-2.89,2.91-.71,1.26-1.06,2.77-1.06,4.5Z"/>
      <path class="st1" d="M869.2,889.34c-2.04,0-3.82-.26-5.35-.79-1.53-.53-2.82-1.24-3.87-2.15-1.05-.91-1.87-1.93-2.45-3.05l2.84-1.87c.43.75,1,1.49,1.72,2.22.72.73,1.66,1.33,2.82,1.81s2.59.72,4.29.72c2.65,0,4.78-.66,6.41-1.98,1.63-1.32,2.44-3.38,2.44-6.17v-6.73h-.31c-.4.91-.98,1.81-1.73,2.71-.75.9-1.73,1.65-2.95,2.25s-2.71.9-4.5.9c-2.39,0-4.5-.59-6.35-1.77-1.85-1.18-3.3-2.87-4.36-5.07-1.06-2.2-1.59-4.82-1.59-7.87s.52-5.68,1.55-7.98c1.03-2.3,2.47-4.09,4.33-5.37,1.85-1.28,4.01-1.93,6.48-1.93,1.83,0,3.35.32,4.55.96,1.21.64,2.18,1.44,2.91,2.38.73.95,1.31,1.87,1.72,2.76h.35v-5.7h3.39v30.66c0,2.53-.54,4.61-1.62,6.25-1.08,1.63-2.54,2.84-4.4,3.63-1.86.78-3.96,1.18-6.32,1.18ZM868.97,874.03c1.92,0,3.56-.46,4.92-1.39,1.36-.93,2.41-2.26,3.13-4,.73-1.74,1.09-3.81,1.09-6.21s-.36-4.41-1.07-6.22c-.71-1.81-1.75-3.24-3.11-4.28-1.35-1.04-3.01-1.57-4.97-1.57s-3.68.54-5.06,1.62c-1.38,1.08-2.41,2.53-3.11,4.35-.7,1.82-1.05,3.86-1.05,6.1s.36,4.3,1.07,6.04c.71,1.74,1.76,3.11,3.13,4.08,1.37.98,3.05,1.47,5.02,1.47Z"/>
      <path class="st1" d="M906.84,877.51v-39.84h23.11v3.27h-19.48v15h18.25v3.27h-18.25v15.04h19.86v3.27h-23.5Z"/>
      <path class="st1" d="M942.1,858.84v18.68h-3.46v-29.88h3.37v4.69h.31c.7-1.53,1.79-2.76,3.28-3.69,1.49-.93,3.33-1.39,5.52-1.39,2.01,0,3.78.42,5.3,1.25,1.52.84,2.71,2.07,3.56,3.69.85,1.62,1.28,3.61,1.28,5.97v19.36h-3.47v-19.14c0-2.45-.68-4.39-2.05-5.82-1.37-1.42-3.2-2.14-5.49-2.14-1.57,0-2.96.34-4.18,1.01-1.22.67-2.18,1.64-2.89,2.91-.71,1.26-1.06,2.77-1.06,4.5Z"/>
      <path class="st1" d="M982.15,847.63v3.01h-14.26v-3.01h14.26ZM972.35,840.47h3.48v29.24c0,1.24.21,2.22.64,2.93.43.71.98,1.2,1.67,1.5.69.29,1.42.44,2.2.44.45,0,.84-.03,1.17-.09.33-.06.61-.12.86-.19l.74,3.13c-.34.13-.75.25-1.24.36-.49.11-1.1.17-1.83.17-1.27,0-2.49-.28-3.66-.84-1.18-.56-2.14-1.39-2.89-2.49-.75-1.1-1.13-2.47-1.13-4.1v-30.06Z"/>
      <path class="st1" d="M1002.09,878.13c-2.79,0-5.2-.65-7.24-1.96-2.04-1.3-3.61-3.11-4.72-5.43-1.11-2.32-1.66-4.98-1.66-8.01s.56-5.68,1.66-8.03c1.11-2.34,2.65-4.18,4.61-5.51,1.97-1.33,4.24-1.99,6.82-1.99,1.62,0,3.19.29,4.69.88,1.5.59,2.86,1.49,4.06,2.7,1.2,1.21,2.15,2.74,2.85,4.57.7,1.84,1.05,4,1.05,6.51v1.71h-23.35v-3.05h19.8c0-1.92-.39-3.65-1.16-5.19-.77-1.54-1.84-2.75-3.21-3.65-1.37-.89-2.95-1.34-4.74-1.34-1.89,0-3.56.51-5,1.52-1.44,1.01-2.57,2.35-3.38,4.01-.81,1.66-1.22,3.47-1.24,5.45v1.83c0,2.37.41,4.44,1.24,6.21.82,1.77,2,3.14,3.51,4.12,1.52.97,3.31,1.46,5.39,1.46,1.42,0,2.66-.22,3.73-.66,1.07-.44,1.97-1.03,2.7-1.78s1.29-1.57,1.66-2.46l3.29,1.07c-.46,1.26-1.2,2.42-2.23,3.48-1.03,1.06-2.31,1.92-3.85,2.56-1.54.64-3.31.96-5.3.96Z"/>
      <path class="st1" d="M1021.82,877.51v-29.88h3.37v4.59h.25c.6-1.5,1.64-2.72,3.12-3.65,1.49-.92,3.17-1.39,5.05-1.39.29,0,.6,0,.95.02s.64.03.88.04v3.52c-.16-.03-.43-.06-.82-.12-.39-.05-.81-.08-1.27-.08-1.56,0-2.94.33-4.15.98-1.21.66-2.17,1.56-2.87,2.71-.7,1.16-1.05,2.47-1.05,3.95v19.3h-3.46Z"/>
      <path class="st1" d="M1041.35,888.72v-41.09h3.37v5.7h.41c.41-.9.98-1.81,1.71-2.75.73-.94,1.69-1.74,2.89-2.38,1.2-.65,2.71-.97,4.54-.97,2.47,0,4.62.65,6.47,1.94,1.85,1.29,3.29,3.09,4.32,5.41,1.03,2.31,1.55,5.01,1.55,8.08s-.52,5.79-1.55,8.11c-1.03,2.32-2.47,4.13-4.32,5.43-1.85,1.3-3.99,1.94-6.43,1.94-1.8,0-3.31-.33-4.52-.97-1.21-.65-2.19-1.45-2.94-2.4s-1.32-1.88-1.72-2.79h-.31v16.75h-3.46ZM1044.78,862.59c0,2.41.36,4.55,1.08,6.41.72,1.86,1.76,3.32,3.11,4.38,1.36,1.06,3,1.58,4.93,1.58s3.66-.55,5.03-1.64c1.37-1.1,2.41-2.58,3.13-4.44.72-1.87,1.08-3.96,1.08-6.29s-.35-4.36-1.06-6.21c-.71-1.84-1.75-3.3-3.12-4.39-1.38-1.08-3.06-1.62-5.06-1.62s-3.6.52-4.96,1.57c-1.36,1.04-2.4,2.48-3.1,4.32-.71,1.84-1.06,3.94-1.06,6.33Z"/>
      <path class="st1" d="M1074.21,877.51v-29.88h3.37v4.59h.25c.6-1.5,1.64-2.72,3.12-3.65,1.49-.92,3.17-1.39,5.05-1.39.29,0,.6,0,.95.02s.64.03.88.04v3.52c-.16-.03-.43-.06-.82-.12-.39-.05-.81-.08-1.27-.08-1.56,0-2.94.33-4.15.98-1.21.66-2.17,1.56-2.87,2.71-.7,1.16-1.05,2.47-1.05,3.95v19.3h-3.46Z"/>
      <path class="st1" d="M1095.55,842.49c-.71,0-1.32-.25-1.83-.73s-.76-1.07-.76-1.76.26-1.27.77-1.76c.51-.49,1.12-.73,1.82-.73s1.32.24,1.83.73c.51.49.76,1.07.76,1.76s-.26,1.28-.77,1.76c-.51.49-1.12.73-1.82.73ZM1093.78,877.51v-29.88h3.48v29.88h-3.48Z"/>
      <path class="st1" d="M1126.52,854.19l-3.17.89c-.31-.89-.75-1.7-1.32-2.43-.57-.73-1.31-1.3-2.23-1.73-.92-.43-2.05-.64-3.4-.64-2.02,0-3.68.48-4.98,1.44-1.3.96-1.95,2.2-1.95,3.72,0,1.28.45,2.33,1.33,3.12s2.26,1.43,4.11,1.9l4.52,1.11c2.5.61,4.38,1.58,5.63,2.9,1.25,1.32,1.88,2.98,1.88,4.98,0,1.69-.47,3.19-1.4,4.5-.93,1.31-2.23,2.34-3.9,3.08-1.67.74-3.6,1.12-5.79,1.12-2.92,0-5.33-.66-7.22-1.98-1.9-1.32-3.11-3.22-3.64-5.71l3.33-.82c.43,1.78,1.27,3.12,2.52,4.02,1.25.91,2.9,1.36,4.95,1.36,2.29,0,4.13-.52,5.51-1.55,1.38-1.03,2.06-2.33,2.06-3.88,0-1.21-.4-2.22-1.2-3.05-.8-.82-2.02-1.43-3.66-1.82l-4.88-1.17c-2.59-.62-4.52-1.61-5.76-2.96-1.24-1.35-1.87-3.02-1.87-5.02,0-1.65.45-3.1,1.34-4.35.9-1.25,2.13-2.23,3.7-2.95,1.57-.71,3.36-1.07,5.37-1.07,2.74,0,4.93.62,6.57,1.86,1.64,1.24,2.82,2.94,3.55,5.11Z"/>
      <path class="st1" d="M1146.62,878.13c-2.79,0-5.2-.65-7.24-1.96-2.04-1.3-3.61-3.11-4.72-5.43-1.11-2.32-1.66-4.98-1.66-8.01s.56-5.68,1.66-8.03c1.11-2.34,2.65-4.18,4.61-5.51,1.97-1.33,4.24-1.99,6.82-1.99,1.62,0,3.19.29,4.69.88,1.5.59,2.86,1.49,4.06,2.7,1.2,1.21,2.15,2.74,2.85,4.57.7,1.84,1.05,4,1.05,6.51v1.71h-23.35v-3.05h19.8c0-1.92-.39-3.65-1.16-5.19-.77-1.54-1.84-2.75-3.21-3.65-1.37-.89-2.95-1.34-4.74-1.34-1.89,0-3.56.51-5,1.52-1.44,1.01-2.57,2.35-3.38,4.01-.81,1.66-1.22,3.47-1.24,5.45v1.83c0,2.37.41,4.44,1.24,6.21.82,1.77,2,3.14,3.51,4.12,1.52.97,3.31,1.46,5.39,1.46,1.42,0,2.66-.22,3.73-.66,1.07-.44,1.97-1.03,2.7-1.78.73-.74,1.29-1.57,1.66-2.46l3.29,1.07c-.46,1.26-1.2,2.42-2.23,3.48-1.03,1.06-2.31,1.92-3.85,2.56-1.54.64-3.31.96-5.3.96Z"/>
      <path class="st1" d="M1186.42,854.19l-3.17.89c-.31-.89-.75-1.7-1.32-2.43-.57-.73-1.31-1.3-2.23-1.73-.92-.43-2.05-.64-3.4-.64-2.02,0-3.68.48-4.98,1.44-1.3.96-1.95,2.2-1.95,3.72,0,1.28.45,2.33,1.33,3.12.89.8,2.26,1.43,4.11,1.9l4.52,1.11c2.5.61,4.38,1.58,5.63,2.9,1.25,1.32,1.88,2.98,1.88,4.98,0,1.69-.47,3.19-1.4,4.5-.93,1.31-2.23,2.34-3.9,3.08s-3.6,1.12-5.79,1.12c-2.92,0-5.33-.66-7.22-1.98-1.9-1.32-3.11-3.22-3.64-5.71l3.33-.82c.43,1.78,1.27,3.12,2.52,4.02,1.25.91,2.9,1.36,4.95,1.36,2.29,0,4.13-.52,5.51-1.55,1.38-1.03,2.06-2.33,2.06-3.88,0-1.21-.4-2.22-1.2-3.05-.8-.82-2.02-1.43-3.66-1.82l-4.88-1.17c-2.59-.62-4.52-1.61-5.76-2.96-1.24-1.35-1.87-3.02-1.87-5.02,0-1.65.45-3.1,1.34-4.35.9-1.25,2.13-2.23,3.7-2.95,1.57-.71,3.36-1.07,5.37-1.07,2.74,0,4.93.62,6.57,1.86s2.82,2.94,3.55,5.11Z"/>
      <path class="st1" d="M1197.2,877.8c-.77,0-1.42-.27-1.98-.82-.55-.55-.83-1.21-.83-1.98s.28-1.42.83-1.98c.55-.55,1.21-.83,1.98-.83s1.42.28,1.97.83.83,1.21.83,1.98c0,.51-.13.97-.38,1.4-.25.43-.59.77-1.01,1.02-.42.25-.89.38-1.41.38Z"/>
    </g>
    <g>
      <path class="st1" d="M0,784.78l28.04-68.4h5.47l27.74,68.4h-7.85l-24.16-60.45h2.89l-24.36,60.45H0ZM12.83,766.99v-6.46h35.79v6.46H12.83Z"/>
      <path class="st1" d="M97.73,784.78v-68.4h7.26v68.4h-7.26Z"/>
      <path class="st1" d="M186.91,723.04v-6.66h55.48v6.66h-55.48ZM210.97,784.78v-66.51h7.36v66.51h-7.36Z"/>
      <path class="st1" d="M279.67,784.78v-68.4h7.26v68.4h-7.26ZM284.44,723.04v-6.66h39.67v6.66h-39.67ZM284.44,752.97v-6.46h37.08v6.46h-37.08ZM284.44,784.78v-6.66h40.26v6.66h-40.26Z"/>
      <path class="st1" d="M392.51,785.78c-4.91,0-9.46-.9-13.67-2.69-4.21-1.79-7.87-4.31-10.99-7.56-3.11-3.25-5.52-7.01-7.21-11.29-1.69-4.28-2.53-8.86-2.53-13.77s.84-9.49,2.53-13.77c1.69-4.28,4.08-8,7.16-11.19,3.08-3.18,6.71-5.67,10.89-7.46,4.18-1.79,8.68-2.68,13.52-2.68,5.24,0,9.92.93,14.07,2.78,4.14,1.86,7.77,4.41,10.89,7.65l-4.97,4.97c-2.39-2.65-5.27-4.72-8.65-6.21-3.38-1.49-7.16-2.24-11.33-2.24-3.85,0-7.38.7-10.59,2.09-3.22,1.39-6.03,3.36-8.45,5.92-2.42,2.55-4.28,5.53-5.57,8.95-1.29,3.41-1.94,7.14-1.94,11.18s.66,7.79,1.99,11.24c1.33,3.45,3.18,6.45,5.57,9,2.38,2.55,5.2,4.52,8.45,5.92,3.25,1.39,6.8,2.09,10.64,2.09,4.37,0,8.27-.76,11.68-2.29,3.41-1.52,6.31-3.61,8.7-6.26l4.97,5.07c-3.05,3.25-6.69,5.82-10.93,7.71-4.24,1.89-8.98,2.83-14.22,2.83Z"/>
      <path class="st1" d="M455.25,784.78v-68.4h7.26v68.4h-7.26ZM460.02,752.77v-6.66h42.05v6.66h-42.05ZM500.08,784.78v-68.4h7.26v68.4h-7.26Z"/>
      <path class="st1" d="M549.69,784.78v-68.4h5.17l2.09,8.65v59.75h-7.26ZM597.02,784.78l-43.25-58.66,1.09-9.74,43.15,58.66-.99,9.74ZM597.02,784.78l-2.19-8.25v-60.15h7.36v68.4h-5.17Z"/>
      <path class="st1" d="M675.26,785.78c-4.84,0-9.33-.91-13.47-2.73-4.14-1.82-7.77-4.34-10.88-7.56-3.12-3.22-5.55-6.96-7.31-11.24-1.76-4.28-2.63-8.86-2.63-13.77s.86-9.58,2.58-13.82c1.72-4.24,4.14-7.96,7.26-11.14,3.11-3.18,6.73-5.67,10.84-7.46,4.11-1.79,8.58-2.68,13.42-2.68s9.33.89,13.47,2.68c4.14,1.79,7.77,4.28,10.89,7.46,3.11,3.18,5.53,6.91,7.26,11.19,1.72,4.28,2.59,8.9,2.59,13.87s-.86,9.49-2.59,13.77c-1.72,4.28-4.12,8-7.21,11.19-3.08,3.18-6.68,5.68-10.79,7.51-4.11,1.82-8.58,2.73-13.42,2.73ZM675.06,778.72c5.17,0,9.76-1.23,13.77-3.68,4.01-2.45,7.16-5.8,9.45-10.04,2.29-4.24,3.43-9.08,3.43-14.52,0-4.04-.66-7.77-1.99-11.18-1.33-3.41-3.18-6.4-5.57-8.95-2.38-2.55-5.19-4.52-8.4-5.92-3.22-1.39-6.78-2.09-10.69-2.09-5.1,0-9.66,1.21-13.67,3.63-4.01,2.42-7.16,5.75-9.44,9.99-2.29,4.24-3.43,9.08-3.43,14.51,0,4.05.66,7.79,1.99,11.24,1.33,3.45,3.18,6.45,5.57,9,2.39,2.55,5.2,4.52,8.45,5.92,3.25,1.39,6.76,2.09,10.54,2.09Z"/>
      <path class="st1" d="M748.23,784.78v-68.4h7.26v68.4h-7.26ZM753.01,784.78v-6.66h37.68v6.66h-37.68Z"/>
      <path class="st1" d="M852.42,785.78c-4.84,0-9.33-.91-13.47-2.73-4.14-1.82-7.77-4.34-10.88-7.56-3.12-3.22-5.55-6.96-7.31-11.24-1.76-4.28-2.63-8.86-2.63-13.77s.86-9.58,2.58-13.82c1.72-4.24,4.14-7.96,7.26-11.14,3.11-3.18,6.73-5.67,10.84-7.46,4.11-1.79,8.58-2.68,13.42-2.68s9.33.89,13.47,2.68c4.14,1.79,7.77,4.28,10.89,7.46,3.11,3.18,5.53,6.91,7.26,11.19s2.59,8.9,2.59,13.87-.86,9.49-2.59,13.77c-1.72,4.28-4.12,8-7.21,11.19-3.08,3.18-6.68,5.68-10.79,7.51-4.11,1.82-8.58,2.73-13.42,2.73ZM852.23,778.72c5.17,0,9.76-1.23,13.77-3.68,4.01-2.45,7.16-5.8,9.45-10.04,2.29-4.24,3.43-9.08,3.43-14.52,0-4.04-.66-7.77-1.99-11.18-1.33-3.41-3.18-6.4-5.57-8.95-2.38-2.55-5.19-4.52-8.4-5.92-3.22-1.39-6.78-2.09-10.69-2.09-5.1,0-9.66,1.21-13.67,3.63-4.01,2.42-7.16,5.75-9.44,9.99-2.29,4.24-3.43,9.08-3.43,14.51,0,4.05.66,7.79,1.99,11.24,1.33,3.45,3.18,6.45,5.57,9,2.39,2.55,5.2,4.52,8.45,5.92,3.25,1.39,6.76,2.09,10.54,2.09Z"/>
      <path class="st1" d="M956.72,785.68c-4.84,0-9.34-.89-13.52-2.68-4.17-1.79-7.82-4.28-10.93-7.46-3.12-3.18-5.54-6.91-7.26-11.19-1.72-4.28-2.58-8.9-2.58-13.87s.88-9.58,2.63-13.82c1.76-4.24,4.19-7.97,7.31-11.19,3.11-3.21,6.79-5.72,11.04-7.51,4.24-1.79,8.85-2.69,13.82-2.69,5.5,0,10.55,1.1,15.16,3.28,4.61,2.19,8.4,5.27,11.38,9.25l-5.07,5.07c-2.39-3.38-5.44-5.98-9.14-7.8-3.72-1.82-7.82-2.73-12.33-2.73-5.37,0-10.11,1.21-14.22,3.63-4.11,2.42-7.31,5.75-9.59,9.99-2.29,4.24-3.43,9.11-3.43,14.61s1.15,10.27,3.43,14.51c2.29,4.24,5.44,7.58,9.44,9.99,4.01,2.42,8.57,3.63,13.67,3.63s9.53-1.03,13.27-3.08c3.74-2.05,6.63-5.03,8.65-8.95,2.02-3.91,3.06-8.62,3.13-14.12l4.18,3.08h-29.93v-6.66h33.31v1.09c0,7.69-1.38,14.19-4.13,19.49-2.75,5.3-6.55,9.31-11.38,12.03-4.84,2.72-10.47,4.07-16.9,4.07Z"/>
      <path class="st1" d="M1027.5,784.78v-68.4h7.26v68.4h-7.26Z"/>
      <path class="st1" d="M1077.11,784.78v-68.4h7.26v68.4h-7.26ZM1081.88,723.04v-6.66h39.67v6.66h-39.67ZM1081.88,752.97v-6.46h37.08v6.46h-37.08ZM1081.88,784.78v-6.66h40.26v6.66h-40.26Z"/>
      <path class="st1" d="M1177.63,785.78c-5.3,0-9.88-1.01-13.72-3.03-3.85-2.02-7.22-4.86-10.14-8.5l5.07-4.97c2.32,3.25,5.02,5.67,8.1,7.26,3.08,1.59,6.74,2.38,10.99,2.38s7.92-.99,10.64-2.98c2.72-1.99,4.08-4.74,4.08-8.25,0-2.72-.63-4.95-1.89-6.71-1.26-1.75-2.9-3.18-4.92-4.28-2.02-1.09-4.26-2.07-6.71-2.93-2.45-.86-4.89-1.77-7.31-2.73-2.42-.96-4.65-2.17-6.71-3.63-2.05-1.46-3.69-3.32-4.92-5.57-1.23-2.25-1.84-5.14-1.84-8.65,0-3.71.9-6.89,2.69-9.54,1.79-2.65,4.24-4.69,7.36-6.11,3.11-1.42,6.66-2.14,10.64-2.14,4.44,0,8.4.86,11.88,2.58,3.48,1.73,6.38,4.04,8.7,6.96l-4.97,4.97c-2.12-2.52-4.44-4.44-6.96-5.77-2.52-1.33-5.47-1.99-8.85-1.99-3.98,0-7.16.93-9.54,2.78-2.39,1.86-3.58,4.44-3.58,7.75,0,2.59.61,4.67,1.84,6.26,1.23,1.59,2.87,2.92,4.92,3.98,2.05,1.06,4.29,2.01,6.71,2.83,2.42.83,4.86,1.74,7.31,2.73,2.45.99,4.69,2.25,6.71,3.78,2.02,1.53,3.66,3.47,4.92,5.82,1.26,2.35,1.89,5.35,1.89,9,0,5.9-2.01,10.49-6.02,13.77-4.01,3.28-9.46,4.92-16.35,4.92Z"/>
    </g>
  </g>
  <g>
    <path class="st0" d="M803.87,203.87c0-60.69-26.54-115.15-68.62-152.49h-18.37c-1.25,3.52-4.57,6.05-8.52,6.05-5.01,0-9.07-4.06-9.07-9.07s4.06-9.07,9.07-9.07c3.95,0,7.27,2.54,8.52,6.05h11.27c2.41,1.95,4.78,3.97,7.1,6.03C699.25,19.43,651.91,0,600,0c-112.6,0-203.87,91.28-203.87,203.87s91.28,203.87,203.87,203.87c53.34,0,101.88-20.51,138.22-54.05-1.1,1.01-2.22,2-3.34,2.99h-39.04l-117.49-129.28-47.17,49.37c1.68,3.33,1.22,7.49-1.51,10.34-3.46,3.62-9.2,3.75-12.82.29-3.62-3.46-3.75-9.2-.29-12.82,2.73-2.85,6.85-3.5,10.26-1.98l51.64-54.05,120.05,132.1h28.94l-72.2-81.19c-3.46,1.41-7.56.61-10.18-2.34-3.33-3.74-2.99-9.48.75-12.8,3.74-3.33,9.48-2.99,12.8.75,2.62,2.95,2.94,7.12,1.14,10.39l78.46,88.24c40.36-37.25,65.65-90.57,65.65-149.82ZM520.73,350.65v-16.56c-3.52-1.25-6.05-4.57-6.05-8.52,0-5.01,4.06-9.07,9.07-9.07s9.07,4.06,9.07,9.07c0,3.95-2.54,7.27-6.05,8.52v22.59h-35.21V71.2h35.21v63.42c3.52,1.25,6.05,4.57,6.05,8.52,0,5.01-4.06,9.07-9.07,9.07s-9.07-4.06-9.07-9.07c0-3.95,2.54-7.27,6.05-8.52v-57.39h-23.15v273.43h23.15ZM520.73,247.72v-52.23c-3.52-1.25-6.05-4.57-6.05-8.52,0-5.01,4.06-9.07,9.07-9.07s9.07,4.06,9.07,9.07c0,3.95-2.54,7.27-6.05,8.52v37.27l142.48-147.97c-1.67-3.34-1.19-7.49,1.55-10.33,3.47-3.61,9.22-3.72,12.82-.24,3.61,3.47,3.72,9.22.24,12.83-2.74,2.84-6.87,3.48-10.27,1.94l-152.85,158.75ZM719.72,87.03c-2.71,2.87-6.84,3.54-10.25,2.02l-100.88,106.58c1.7,3.33,1.25,7.48-1.46,10.35-3.44,3.64-9.18,3.8-12.82.35-3.64-3.44-3.8-9.19-.35-12.82,2.71-2.87,6.84-3.54,10.25-2.02l100.88-106.58c-1.7-3.33-1.26-7.48,1.46-10.35,3.44-3.64,9.19-3.8,12.82-.35,3.64,3.44,3.8,9.18.35,12.82Z"/>
    <polygon class="st0" points="735.25 51.38 735.25 51.37 735.25 51.38 735.25 51.38"/>
    <polygon class="st0" points="738.22 353.69 738.22 353.69 738.22 353.69 738.22 353.69"/>
    <path class="st1" d="M552.61,293.7l25.33-26.66,51.45,56.61c-1.76,3.29-1.4,7.45,1.25,10.37,3.37,3.71,9.1,3.98,12.81.61,3.71-3.37,3.98-9.11.61-12.81-2.65-2.92-6.77-3.67-10.21-2.23l-55.81-61.41-31.45,33.11v86.87h-52.4c3.49,2.12,7.07,4.11,10.7,6.03h47.73v-90.49Z"/>
    <path class="st1" d="M471.74,57.27c3.52-1.25,6.05-4.57,6.05-8.52,0-2.38-.94-4.53-2.44-6.15-4.77,3.69-9.37,7.57-13.79,11.66,1.06,1.36,2.49,2.42,4.15,3.01v299.92c1.98,1.74,3.98,3.45,6.03,5.11V57.27Z"/>
    <path class="st1" d="M629.93,202.08l122.21,137.45c1.35-1.51,2.68-3.05,3.98-4.6l-118.02-132.72,120.02-126.99c-1.28-1.57-2.6-3.1-3.93-4.63l-124.28,131.49Z"/>
    <path class="st1" d="M703.33,376.5c-1.25-3.52-4.57-6.06-8.52-6.06-5.01,0-9.07,4.06-9.07,9.07,0,3.1,1.56,5.83,3.93,7.46,6.45-3.16,12.69-6.68,18.74-10.48h-5.08Z"/>
    <path class="st1" d="M501.05,57.43c3.95,0,7.27-2.54,8.52-6.05h37.01v132.23l121.17-125.66c3.4,1.54,7.53.91,10.27-1.93,3.48-3.61,3.37-9.35-.23-12.83-3.61-3.48-9.35-3.37-12.83.23-2.74,2.84-3.22,6.99-1.55,10.33l-110.8,114.9V45.35h-43.04c-1.25-3.52-4.57-6.05-8.52-6.05-5.01,0-9.07,4.06-9.07,9.07s4.06,9.07,9.07,9.07Z"/>
  </g>
</svg>